HIERARCHY
ROOT Hips
{
	OFFSET 0.000000 0.000000 0.000000
	CHANNELS 6 Xposition Yposition Zposition Zrotation Yrotation Xrotation 
	JOINT LHipJoint
	{
		OFFSET 0.000000 0.000000 0.000000
		CHANNELS 3 Zrotation Yrotation Xrotation
		JOINT LeftUpLeg
		{
			OFFSET 1.363060 -1.794630 0.839290
			CHANNELS 3 Zrotation Yrotation Xrotation
			JOINT LeftLeg
			{
				OFFSET 2.448110 -6.726130 0.000000
				CHANNELS 3 Zrotation Yrotation Xrotation
				JOINT LeftFoot
				{
					OFFSET 2.562200 -7.039590 0.000000
					CHANNELS 3 Zrotation Yrotation Xrotation
					JOINT LeftToeBase
					{
						OFFSET 0.157640 -0.433110 2.322550
						CHANNELS 3 Zrotation Yrotation Xrotation
						End Site
						{
							OFFSET 0.000000 0.000000 0.000000
						}
					}
				}
			}
		}
	}
	JOINT RHipJoint
	{
		OFFSET 0.000000 0.000000 0.000000
		CHANNELS 3 Zrotation Yrotation Xrotation
		JOINT RightUpLeg
		{
			OFFSET -1.305520 -1.794630 0.839290
			CHANNELS 3 Zrotation Yrotation Xrotation
			JOINT RightLeg
			{
				OFFSET -2.542530 -6.985550 0.000000
				CHANNELS 3 Zrotation Yrotation Xrotation
				JOINT RightFoot
				{
					OFFSET -2.568260 -7.056230 0.000000
					CHANNELS 3 Zrotation Yrotation Xrotation
					JOINT RightToeBase
					{
						OFFSET -0.164730 -0.452590 2.363150
						CHANNELS 3 Zrotation Yrotation Xrotation
						End Site
						{
							OFFSET 0.000000 0.000000 0.000000
						}
					}
				}
			}
		}
	}
	JOINT LowerBack
	{
		OFFSET 0.000000 0.000000 0.000000
		CHANNELS 3 Zrotation Yrotation Xrotation
		JOINT Spine
		{
			OFFSET 0.028270 2.035590 -0.193380
			CHANNELS 3 Zrotation Yrotation Xrotation
			JOINT Spine1
			{
				OFFSET 0.056720 2.048850 -0.042750
				CHANNELS 3 Zrotation Yrotation Xrotation
				JOINT Neck
				{
					OFFSET 0.000000 0.000000 0.000000
					CHANNELS 3 Zrotation Yrotation Xrotation
					JOINT Neck1
					{
						OFFSET -0.054170 1.746240 0.172020
						CHANNELS 3 Zrotation Yrotation Xrotation
						JOINT Head
						{
							OFFSET 0.104070 1.761360 -0.123970
							CHANNELS 3 Zrotation Yrotation Xrotation
							End Site
							{
								OFFSET 0.000000 0.000000 0.000000
							}
						}
					}
				}
				JOINT LeftShoulder
				{
					OFFSET 0.000000 0.000000 0.000000
					CHANNELS 3 Zrotation Yrotation Xrotation
					JOINT LeftArm
					{
						OFFSET 3.362410 1.200890 -0.311210
						CHANNELS 3 Zrotation Yrotation Xrotation
						JOINT LeftForeArm
						{
							OFFSET 4.983000 -0.000000 -0.000000
							CHANNELS 3 Zrotation Yrotation Xrotation
							JOINT LeftHand
							{
								OFFSET 3.483560 -0.000000 -0.000000
								CHANNELS 3 Zrotation Yrotation Xrotation
								JOINT LeftFingerBase
								{
									OFFSET 0.000000 0.000000 0.000000
									CHANNELS 3 Zrotation Yrotation Xrotation
									JOINT LeftHandIndex1
									{
										OFFSET 0.715260 -0.000000 -0.000000
										CHANNELS 3 Zrotation Yrotation Xrotation
										End Site
										{
											OFFSET 0.000000 0.000000 0.000000
										}
									}
								}
								JOINT LThumb
								{
									OFFSET 0.000000 0.000000 0.000000
									CHANNELS 3 Zrotation Yrotation Xrotation
									End Site
									{
										OFFSET 0.000000 0.000000 0.000000
									}
								}
							}
						}
					}
				}
				JOINT RightShoulder
				{
					OFFSET 0.000000 0.000000 0.000000
					CHANNELS 3 Zrotation Yrotation Xrotation
					JOINT RightArm
					{
						OFFSET -3.136600 1.374050 -0.404650
						CHANNELS 3 Zrotation Yrotation Xrotation
						JOINT RightForeArm
						{
							OFFSET -5.241900 -0.000000 -0.000000
							CHANNELS 3 Zrotation Yrotation Xrotation
							JOINT RightHand
							{
								OFFSET -3.444170 -0.000000 -0.000000
								CHANNELS 3 Zrotation Yrotation Xrotation
								JOINT RightFingerBase
								{
									OFFSET 0.000000 0.000000 0.000000
									CHANNELS 3 Zrotation Yrotation Xrotation
									JOINT RightHandIndex1
									{
										OFFSET -0.622530 -0.000000 -0.000000
										CHANNELS 3 Zrotation Yrotation Xrotation
										End Site
										{
											OFFSET 0.000000 0.000000 0.000000
										}
									}
								}
								JOINT RThumb
								{
									OFFSET 0.000000 0.000000 0.000000
									CHANNELS 3 Zrotation Yrotation Xrotation
									End Site
									{
										OFFSET 0.000000 0.000000 0.000000
									}
								}
							}
						}
					}
				}
			}
		}
	}
}
MOTION
Frames: 11
Frame Time: 0.008333
9.876915 17.908418 33.730274 -179.248930 -3.311065 -150.131317 9.343553 0.939704 -2.092494 -21.310150 -18.948970 -22.181943 -1.334296 5.022968 10.287853 0.727210 -1.514695 -17.794512 3.911400 -12.041500 -35.879000 -13.785449 -2.486957 -1.027888 29.580403 21.361932 -22.893780 1.414628 -5.931770 11.982218 -1.277643 -4.316498 -25.168043 -2.795500 10.356400 -30.138800 -2.020913 -0.201866 -22.223471 1.619137 -1.267402 -5.524947 -0.813532 -1.347702 12.148580 -3.254924 -3.477688 2.126809 3.681835 -6.627343 5.125791 -2.075500 -3.204800 -2.668800 16.106412 -1.603615 0.621736 -103.631070 -2.138856 13.655720 11.504332 -13.166632 -1.678524 -1.380908 1.277355 9.370842 18.327622 -12.564754 -4.843700 -7.125000 0.000000 0.000000 -5.132300 15.651600 3.572000 -10.695440 -0.774758 -0.023888 99.688558 -4.185943 2.711328 -11.615485 21.395607 -2.917939 0.923055 3.902978 4.169596 -12.001052 -47.612561 9.959000 7.125000 0.000000 0.000000 60.894600 -75.462200 -47.104700 
9.879434 17.906775 33.728522 -179.218599 -3.270461 -149.976209 9.350983 0.923417 -2.115396 -21.217979 -18.930302 -22.399628 -1.334835 5.080547 10.390399 0.735445 -1.474922 -17.867762 3.984600 -12.139800 -36.228400 -13.789334 -2.471725 -1.031123 29.547023 21.399272 -23.228085 1.407265 -6.073526 12.269404 -1.285294 -4.316241 -25.291349 -2.879600 10.497500 -30.603300 -1.981311 -0.194722 -22.320027 1.611956 -1.226628 -5.426846 -0.838802 -1.324675 12.536560 -3.245983 -3.520806 1.937617 3.826580 -6.691627 4.948987 -2.020500 -3.255200 -2.703300 16.113767 -1.608860 0.628601 -103.662542 -2.251208 13.517602 11.609133 -13.344058 -1.711469 -1.415151 1.245555 9.466998 18.648025 -12.324824 -4.835800 -7.125000 0.000000 0.000000 -4.881700 15.913900 3.368500 -10.700920 -0.801712 -0.019020 99.649652 -4.062044 2.913267 -11.657863 21.471086 -2.939869 0.927360 3.909568 3.977972 -12.289224 -47.702968 10.214900 7.125000 0.000000 0.000000 61.049500 -75.615000 -47.401300 
9.882172 17.905461 33.727427 -179.217699 -3.224617 -149.772814 9.364633 0.895280 -2.132440 -21.129141 -18.987922 -22.681713 -1.334444 5.159134 10.531788 0.745710 -1.452754 -18.000556 4.061600 -12.241900 -36.593200 -13.791487 -2.440739 -1.008261 29.391548 21.618583 -23.638030 1.406425 -6.240288 12.586734 -1.303520 -4.435646 -25.584033 -2.917100 10.559600 -30.808600 -1.947270 -0.175150 -22.243739 1.586026 -1.200420 -5.420110 -0.898956 -1.300684 12.494448 -3.160677 -3.544901 2.085526 3.963195 -6.779339 4.674909 -1.970700 -3.319300 -2.841400 16.140008 -1.619204 0.625399 -103.486034 -2.047780 13.978541 11.722302 -13.542633 -1.757604 -1.432809 1.209052 8.898541 18.687897 -12.299498 -4.828900 -7.125000 0.000000 0.000000 -4.851400 15.961800 3.342400 -10.721134 -0.844147 -0.016399 99.663800 -4.241316 2.966012 -11.663459 21.504476 -2.951199 0.955348 3.933917 3.969691 -12.769403 -48.148219 10.686200 7.125000 0.000000 0.000000 62.503700 -75.982500 -49.079400 
9.882500 17.905351 33.725346 -179.241113 -3.219959 -149.546671 9.384038 0.862079 -2.143184 -21.047615 -19.192514 -22.945271 -1.340166 5.239836 10.666294 0.774801 -1.305145 -18.197426 4.180300 -12.396600 -37.149600 -13.797949 -2.399405 -0.979924 29.172093 21.964716 -23.933640 1.417619 -6.333129 12.721041 -1.317665 -4.653502 -25.876057 -2.918800 10.562300 -30.817700 -1.866509 -0.128812 -22.104460 1.541945 -1.155081 -5.438661 -1.029069 -1.269244 12.313328 -3.038780 -3.560421 2.263422 3.944154 -6.823599 4.540404 -1.986200 -3.349100 -2.937000 16.166450 -1.627866 0.619788 -103.102187 -1.910800 14.825171 11.746224 -13.578941 -1.770202 -1.449757 1.154890 8.121031 18.648021 -12.079939 -4.727200 -7.125000 0.000000 0.000000 -4.873500 16.232800 3.329100 -10.752591 -0.856601 -0.013064 99.764879 -4.568141 2.988832 -11.735789 21.640351 -2.988951 0.954405 3.928103 3.903077 -12.856754 -48.179890 10.763200 7.125000 0.000000 0.000000 62.546600 -76.026400 -49.164000 
9.883486 17.904913 33.725127 -179.238842 -3.213071 -149.309194 9.402502 0.826195 -2.151689 -20.887241 -19.470231 -23.233838 -1.345959 5.328641 10.809137 0.803560 -1.146852 -18.386880 4.088300 -12.277000 -36.719100 -13.813680 -2.361376 -0.958816 29.003416 22.268017 -24.195017 1.433310 -6.378865 12.739720 -1.316556 -4.881521 -26.030041 -2.919600 10.563800 -30.822500 -1.813332 -0.095987 -21.983836 1.526761 -1.121683 -5.441813 -1.073309 -1.248827 12.217209 -3.019881 -3.576453 2.233826 3.906250 -6.832304 4.566067 -2.002700 -3.351600 -2.918900 16.176713 -1.620252 0.616118 -102.935853 -1.876710 14.988833 11.739976 -13.571717 -1.769963 -1.443665 1.150613 8.051666 18.592461 -12.059553 -4.703700 -7.125000 0.000000 0.000000 -4.916600 16.261000 3.355700 -10.766397 -0.847781 -0.015364 99.771600 -4.808247 3.116678 -11.828966 21.788336 -3.029296 0.920768 3.894632 3.584111 -12.639701 -47.637298 10.499400 7.125000 0.000000 0.000000 60.501300 -75.723600 -47.030300 
9.887647 17.902175 33.729727 -179.272322 -3.173998 -148.912674 9.427127 0.773254 -2.167858 -20.671080 -19.713653 -23.787287 -1.344932 5.460222 11.012168 0.807313 -1.133298 -18.504603 3.787500 -11.872100 -35.281000 -13.837420 -2.314678 -0.924223 28.704230 22.612428 -24.757408 1.445550 -6.497471 12.874384 -1.306462 -5.078707 -26.138300 -2.857800 10.461300 -30.483800 -1.899244 -0.124346 -21.997173 1.550351 -1.153697 -5.463937 -0.964953 -1.267227 12.157526 -3.087985 -3.557532 2.181538 3.897504 -6.814236 4.481271 -1.998000 -3.349000 -2.930800 16.173637 -1.610205 0.614199 -103.032402 -1.807095 14.431319 11.740611 -13.596454 -1.774804 -1.405594 1.208601 8.575739 18.432356 -12.454557 -4.814300 -7.125000 0.000000 0.000000 -5.055400 15.811200 3.500500 -10.754811 -0.851436 -0.023830 99.633697 -4.910221 3.133922 -11.850670 21.814488 -3.037614 0.911589 3.889598 3.417435 -12.647210 -47.458197 10.480900 7.125000 0.000000 0.000000 59.811500 -75.653600 -46.350500 
9.885786 17.906556 33.724361 -179.435104 -3.112484 -148.831134 9.434860 0.758703 -2.163465 -20.792078 -19.980519 -23.876832 -1.343160 5.533228 11.155866 0.823973 -1.119023 -18.706893 3.570800 -11.566200 -34.214100 -13.827162 -2.294642 -0.935405 28.385879 22.643543 -24.914908 1.440315 -6.571575 13.037656 -1.317410 -5.163294 -26.299500 -2.824600 10.405600 -30.300400 -2.013746 -0.148099 -21.787880 1.514682 -1.115305 -5.428384 -0.992862 -1.245586 12.157114 -3.048692 -3.590828 2.203685 3.920231 -6.877214 4.325853 -1.990800 -3.392300 -2.999800 16.175885 -1.615317 0.618130 -102.930295 -1.775040 14.334471 11.739724 -13.611284 -1.778591 -1.376643 1.223101 8.712348 18.232482 -12.583105 -4.806400 -7.125000 0.000000 0.000000 -5.214000 15.680600 3.626000 -10.770602 -0.865638 -0.020824 99.635009 -5.076612 3.203011 -11.912394 21.924686 -3.070438 0.914774 3.925853 3.315584 -12.896816 -48.077998 10.780300 7.125000 0.000000 0.000000 62.090500 -76.001800 -48.730600 
9.894766 17.900533 33.723813 -179.316646 -3.072042 -148.652223 9.448759 0.734502 -2.191460 -20.534491 -19.899482 -24.225703 -1.336210 5.638737 11.371884 0.824084 -1.161529 -18.806448 3.666900 -11.703500 -34.690800 -13.844722 -2.258115 -0.905795 28.399653 23.009034 -25.254829 1.443447 -6.722323 13.311354 -1.327954 -5.297301 -26.526956 -2.879000 10.496600 -30.600400 -1.929896 -0.079646 -21.654318 1.491342 -1.036203 -5.409434 -1.035839 -1.200136 12.116749 -2.983797 -3.634217 2.256801 3.946147 -6.942415 4.295026 -1.985100 -3.427300 -3.028000 16.196277 -1.617344 0.616856 -102.660292 -1.722592 14.767327 11.760733 -13.654538 -1.791592 -1.367946 1.208100 8.254432 18.069479 -12.627571 -4.774000 -7.125000 0.000000 0.000000 -5.340200 15.651700 3.717900 -10.789510 -0.873491 -0.016702 99.725041 -5.329484 3.275265 -11.997397 22.068536 -3.108814 0.888621 3.935359 3.223035 -12.668965 -48.324627 10.617200 7.125000 0.000000 0.000000 63.200500 -75.996400 -49.718300 
9.896846 17.900861 33.720309 -179.402145 -3.007386 -148.617384 9.450791 0.728314 -2.186565 -20.610852 -20.072270 -24.283858 -1.343309 5.701266 11.500807 0.868838 -0.899095 -19.010121 4.027900 -12.197400 -36.434000 -13.842978 -2.244027 -0.913810 28.252140 23.021610 -25.371433 1.437553 -6.778120 13.435823 -1.336878 -5.289427 -26.620250 -2.913200 10.553200 -30.787200 -1.999722 -0.125174 -21.317291 1.485309 -1.049829 -5.386185 -0.989476 -1.199149 12.016747 -3.032387 -3.610023 2.256433 3.909194 -6.910942 4.270934 -1.989200 -3.412100 -3.028900 16.210453 -1.606815 0.614788 -102.553942 -1.591127 15.128890 11.818925 -13.754775 -1.817629 -1.379907 1.203619 7.769402 18.096643 -12.779672 -4.836100 -7.125000 0.000000 0.000000 -5.324900 15.483300 3.726500 -10.794888 -0.866874 -0.011917 99.679290 -5.425150 3.167663 -11.972931 22.031771 -3.095167 0.881939 3.911635 3.415409 -12.329705 -47.981360 10.279700 7.125000 0.000000 0.000000 62.031400 -75.730200 -48.392900 
9.897504 17.903380 33.715599 -179.483273 -3.016716 -148.646716 9.449836 0.721977 -2.181807 -20.691437 -20.269349 -24.298934 -1.343760 5.784999 11.696531 0.907838 -0.702567 -19.228295 4.318300 -12.572400 -37.788100 -13.845123 -2.228343 -0.924282 28.158321 23.121241 -25.274585 1.437973 -6.794686 13.499070 -1.354389 -5.408022 -26.820627 -2.918900 10.562600 -30.818600 -2.047763 -0.192286 -20.877605 1.497247 -1.094535 -5.350735 -0.906868 -1.206964 11.919007 -3.061061 -3.602489 2.205154 3.908085 -6.915177 4.094094 -1.985000 -3.428300 -3.075900 16.230312 -1.602516 0.609051 -102.503966 -1.450231 15.663080 11.921878 -13.922165 -1.860094 -1.405938 1.170100 7.189466 18.209683 -12.733591 -4.845400 -7.125000 0.000000 0.000000 -5.237400 15.543200 3.657900 -10.790999 -0.863372 -0.010284 99.567632 -5.389928 3.100418 -11.895962 21.911255 -3.060473 0.900991 3.881349 3.622472 -12.317290 -47.474579 10.201200 7.125000 0.000000 0.000000 60.079400 -75.523100 -46.450600 
9.899803 17.905351 33.714285 -179.513204 -3.048336 -148.526459 9.461178 0.693721 -2.185465 -20.577188 -20.526806 -24.591975 -1.330887 5.964297 12.087453 0.928901 -0.669830 -19.480784 4.272300 -12.514200 -37.576100 -13.851065 -2.202742 -0.922834 28.052814 23.252987 -25.485461 1.433836 -6.904667 13.730359 -1.369376 -5.491438 -27.028171 -2.948000 10.610500 -30.977100 -2.087964 -0.210739 -20.565406 1.497934 -1.093175 -5.334649 -0.847148 -1.194243 11.807898 -2.979336 -3.638829 2.210408 3.989362 -6.993431 3.875583 -1.969400 -3.487200 -3.158000 16.256443 -1.610971 0.599827 -102.382556 -1.334504 16.306003 12.021207 -14.077689 -1.898501 -1.440482 1.089742 6.538639 18.353413 -12.284415 -4.706800 -7.125000 0.000000 0.000000 -5.112500 16.069800 3.511700 -10.793001 -0.870887 -0.012766 99.521697 -5.466159 3.125641 -11.898025 21.912965 -3.062191 0.906070 3.865967 3.603888 -12.369539 -47.216998 10.210100 7.125000 0.000000 0.000000 59.061300 -75.434300 -45.467200 
